<svg width="100" height="38" viewBox="0 0 100 38" xmlns="http://www.w3.org/2000/svg"><title>battery-25</title><g fill="#FFF" fill-rule="evenodd"><path d="M99.932 12.74a2.09 2.09 0 0 0-1.525-1.525l-.067-.068h-3.575v-7.33A3.67 3.67 0 0 0 91.1.152H3.664A3.669 3.669 0 0 0 0 3.817v30.366a3.669 3.669 0 0 0 3.664 3.665h87.435a3.669 3.669 0 0 0 3.665-3.665v-7.33h3.575l.067-.068a2.09 2.09 0 0 0 1.525-1.525l.069-.067V12.808l-.068-.068zm-7.263 21.443c0 .866-.704 1.571-1.57 1.571H3.664c-.865 0-1.57-.705-1.57-1.571V3.817c0-.866.705-1.571 1.57-1.571h87.435c.866 0 1.57.705 1.57 1.571v30.366z"/><path d="M3.926 5.911v26.178c0 .869.701 1.571 1.571 1.571h31.256L18.691 4.34H5.497a1.57 1.57 0 0 0-1.571 1.571z"/></g></svg>