<svg width="100" height="38" viewBox="0 0 100 38" xmlns="http://www.w3.org/2000/svg"><title>Group</title><g fill="#008BCA" fill-rule="evenodd"><path d="M99.933 12.74a2.089 2.089 0 0 0-1.525-1.525l-.067-.068h-3.575v-7.33A3.67 3.67 0 0 0 91.102.152H3.665A3.67 3.67 0 0 0 0 3.816v30.367a3.67 3.67 0 0 0 3.665 3.665h87.436a3.67 3.67 0 0 0 3.664-3.665v-7.33h3.575l.067-.068a2.089 2.089 0 0 0 1.525-1.525l.068-.068V12.807l-.067-.067zm-7.261 21.444c0 .866-.706 1.571-1.571 1.571H3.665c-.866 0-1.57-.705-1.57-1.571V3.816c0-.866.704-1.57 1.57-1.57h87.436c.865 0 1.571.704 1.571 1.57v30.368z"/><path d="M18.693 4.341H5.498a1.57 1.57 0 0 0-1.57 1.571V32.09c0 .869.702 1.571 1.57 1.571h52.634L40 4.34l-21.307.001z"/></g></svg>