<svg width="100" height="38" viewBox="0 0 100 38" xmlns="http://www.w3.org/2000/svg"><title>Group</title><g fill="#008BCA" fill-rule="evenodd"><path d="M99.933 12.74a2.095 2.095 0 0 0-1.525-1.526l-.068-.067h-3.575v-7.33A3.669 3.669 0 0 0 91.101.152H3.665A3.67 3.67 0 0 0 0 3.816v30.367a3.67 3.67 0 0 0 3.665 3.665H91.1a3.669 3.669 0 0 0 3.664-3.665v-7.33h3.575l.068-.067a2.092 2.092 0 0 0 1.525-1.525l.068-.069V12.807l-.067-.067zM92.67 34.183c0 .866-.704 1.571-1.57 1.571H3.665a1.573 1.573 0 0 1-1.571-1.571V3.816c0-.866.705-1.57 1.571-1.57H91.1c.866 0 1.57.705 1.57 1.57v30.367z"/><path d="M89.162 4.34H54.765v-.001H39.999v.001H5.498a1.57 1.57 0 0 0-1.571 1.57v26.178a1.57 1.57 0 0 0 1.571 1.571h83.665a1.57 1.57 0 0 0 1.571-1.571V5.911a1.57 1.57 0 0 0-1.572-1.571z"/></g></svg>