<svg width="100" height="38" viewBox="0 0 100 38" xmlns="http://www.w3.org/2000/svg"><title>Shape</title><path d="M99.9 12.744a2.085 2.085 0 0 0-1.523-1.524l-.067-.068h-3.573V3.827A3.667 3.667 0 0 0 91.075.165H3.694A3.667 3.667 0 0 0 .032 3.827v30.348a3.666 3.666 0 0 0 3.662 3.662h87.38a3.666 3.666 0 0 0 3.662-3.662V26.85h3.573l.067-.067a2.086 2.086 0 0 0 1.523-1.524l.068-.068V12.812l-.067-.068zm-7.257 21.43c0 .865-.704 1.57-1.569 1.57H3.694a1.572 1.572 0 0 1-1.569-1.57V3.826c0-.865.704-1.569 1.569-1.569h87.38c.865 0 1.569.704 1.569 1.569v30.348z" fill="#008BCA" fill-rule="evenodd"/></svg>