<svg width="100" height="38" viewBox="0 0 100 38" xmlns="http://www.w3.org/2000/svg"><title>battery-75</title><g fill="#FFF" fill-rule="evenodd"><path d="M99.933 12.739a2.09 2.09 0 0 0-1.525-1.525l-.067-.067h-3.575v-7.33A3.67 3.67 0 0 0 91.102.152H3.665A3.67 3.67 0 0 0 0 3.816v30.367a3.67 3.67 0 0 0 3.665 3.665h87.436a3.67 3.67 0 0 0 3.664-3.665v-7.33h3.575l.067-.068a2.089 2.089 0 0 0 1.525-1.525l.068-.068V12.807l-.067-.068zm-7.261 21.445c0 .866-.706 1.57-1.571 1.57H3.665c-.866 0-1.57-.704-1.57-1.57V3.816c0-.866.704-1.571 1.57-1.571h87.436c.865 0 1.571.705 1.571 1.571v30.368z"/><path d="M52.06 4.34H5.498a1.57 1.57 0 0 0-1.57 1.57v26.178c0 .869.702 1.571 1.57 1.571h74.004L61.369 4.34H52.06z"/></g></svg>