<svg width="108" height="83" viewBox="0 0 108 83" xmlns="http://www.w3.org/2000/svg"><title>bulldozer-fire</title><g fill="none" fill-rule="evenodd"><g transform="translate(16 17)" fill="#F4D2D2"><circle cx="18.562" cy="48.217" r="5.581"/><circle cx="35.358" cy="48.217" r="5.581"/><circle cx="52.154" cy="48.217" r="5.581"/><path d="M85.056 41.182a37.036 37.036 0 0 1 5.759-19.859 2.752 2.752 0 1 0-4.65-2.947 42.505 42.505 0 0 0-6.518 20.055h-4.761V25.125a2.751 2.751 0 0 0-2.752-2.752H58.293V7.919a2.753 2.753 0 1 0-5.505 0v14.453h-7.419V3.483A2.751 2.751 0 0 0 42.617.731H10.653A2.752 2.752 0 0 0 7.9 3.483v30.435c0 .138.022.269.042.399-4.354 3.094-7.208 8.165-7.208 13.9 0 9.401 7.649 17.051 17.053 17.051h34.867c7.066 0 13.141-4.318 15.725-10.457h3.757a2.751 2.751 0 0 0 2.752-2.753v-8.124h4.761a42.513 42.513 0 0 0 6.518 20.057 2.751 2.751 0 0 0 2.327 1.277 2.755 2.755 0 0 0 2.323-4.226 37.01 37.01 0 0 1-5.761-19.86zM13.324 28.687h.082V6.237h26.458v18.888a2.753 2.753 0 0 0 2.752 2.753h26.765v17.055c-1.536-7.836-8.449-13.767-16.729-13.767H17.786c-1.547 0-3.038.224-4.462.613v-3.092zm39.329 31.077H17.786c-6.368 0-11.547-5.181-11.547-11.546 0-6.368 5.18-11.547 11.547-11.547h34.867c5.813 0 10.624 4.322 11.42 9.919.073.532.127 1.073.127 1.628 0 .483-.038.976-.104 1.47-.009.061-.02.123-.028.187-.074.479-.169.964-.304 1.444v.004c-1.362 4.86-5.821 8.441-11.111 8.441z"/><path d="M20.877 27.734h12.038a2.752 2.752 0 0 0 2.752-2.753V12.966a2.752 2.752 0 0 0-2.752-2.753H20.877a2.753 2.753 0 0 0-2.753 2.753v12.015a2.754 2.754 0 0 0 2.753 2.753zm2.753-12.015h6.533v6.509H23.63v-6.509z"/></g><path d="M83.008 24.221l.548.118c.347-.03.651-.236.741-.544.114-.393-.163-.791-.617-.89-.454-.097-.916.141-1.03.534-.089.309.068.614.358.782z"/><path d="M93.19 30.68s-.978-1.871.07-3.018c0 0-2.236.302-2.516 1.449 0 0-2.257-1.992-.709-4.527 0 0-1.597-.06-2.995 1.51 0 0 .56-3.984-3.214-4.89 0 0 2.376 4.467-1.677 7.243 0 0-.63-2.414-2.237-2.776 0 0 1.049 3.87-.21 4.831 0 0-1.117.6-1.187-1.874 0 0-4.194 3.621-1.748 7.303 0 0 2.097 3.862 8.386 3.862 0 0 6.656.25 8.596-4.225 0 0 .839-2.655-.559-4.888z" fill="#F4D2D2"/><path d="M33.008 3.221l.548.118c.348-.03.652-.236.741-.544.114-.393-.162-.791-.617-.89-.454-.097-.916.141-1.03.534-.089.309.068.614.358.782z"/><path d="M43.19 9.68s-.978-1.871.07-3.018c0 0-2.236.302-2.516 1.449 0 0-2.257-1.992-.709-4.527 0 0-1.597-.06-2.995 1.51 0 0 .56-3.984-3.214-4.89 0 0 2.376 4.467-1.677 7.243 0 0-.63-2.414-2.237-2.776 0 0 1.049 3.87-.21 4.831 0 0-1.117.6-1.187-1.874 0 0-4.194 3.621-1.748 7.303 0 0 2.097 3.862 8.386 3.862 0 0 6.656.25 8.596-4.225 0 0 .839-2.655-.559-4.888z" fill="#F4D2D2"/><path d="M33.008 3.221l.548.118c.348-.03.652-.236.741-.544.114-.393-.162-.791-.617-.89-.454-.097-.916.141-1.03.534-.089.309.068.614.358.782z"/><path d="M43.19 9.68s-.978-1.871.07-3.018c0 0-2.236.302-2.516 1.449 0 0-2.257-1.992-.709-4.527 0 0-1.597-.06-2.995 1.51 0 0 .56-3.984-3.214-4.89 0 0 2.376 4.467-1.677 7.243 0 0-.63-2.414-2.237-2.776 0 0 1.049 3.87-.21 4.831 0 0-1.117.6-1.187-1.874 0 0-4.194 3.621-1.748 7.303 0 0 2.097 3.862 8.386 3.862 0 0 6.656.25 8.596-4.225 0 0 .839-2.655-.559-4.888zM13.264 51.415s-2.11-.051-2.605-1.524c0 0-.82 2.102.047 2.902 0 0-2.836 1.009-4.303-1.574 0 0-.827 1.368-.132 3.351 0 0-3.213-2.42-5.834.441 0 0 5.058.087 5.521 4.978 0 0-2.416-.62-3.512.61 0 0 3.892.96 4.124 2.526 0 0-.017 1.269-2.215.13 0 0 1.134 5.424 5.54 5.07 0 0 4.395.038 7.444-5.463 0 0 3.446-5.7.472-9.566 0 0-1.916-2.02-4.547-1.881z" fill="#F4D2D2"/><path d="M7.34 47.442l.37-.422c.142-.318.109-.684-.118-.913-.288-.29-.77-.24-1.076.11-.307.35-.321.869-.033 1.158.226.228.57.24.857.067z"/></g></svg>