<svg width="142" height="66" viewBox="0 0 142 66" xmlns="http://www.w3.org/2000/svg"><title>bulldozer</title><g fill="#FFF" fill-rule="evenodd"><circle cx="18.562" cy="48.217" r="5.581"/><circle cx="35.358" cy="48.217" r="5.581"/><circle cx="52.154" cy="48.217" r="5.581"/><path d="M85.056 41.182a37.036 37.036 0 0 1 5.759-19.859 2.752 2.752 0 1 0-4.65-2.947 42.505 42.505 0 0 0-6.518 20.055h-4.761V25.125a2.751 2.751 0 0 0-2.752-2.752H58.293V7.919a2.753 2.753 0 1 0-5.505 0v14.453h-7.419V3.483A2.751 2.751 0 0 0 42.617.731H10.653A2.752 2.752 0 0 0 7.9 3.483v30.435c0 .138.022.269.042.399-4.354 3.094-7.208 8.165-7.208 13.9 0 9.401 7.649 17.051 17.053 17.051h34.867c7.066 0 13.141-4.318 15.725-10.457h3.757a2.751 2.751 0 0 0 2.752-2.753v-8.124h4.761a42.513 42.513 0 0 0 6.518 20.057 2.751 2.751 0 0 0 2.327 1.277 2.755 2.755 0 0 0 2.323-4.226 37.01 37.01 0 0 1-5.761-19.86zM13.324 28.687h.082V6.237h26.458v18.888a2.753 2.753 0 0 0 2.752 2.753h26.765v17.055c-1.536-7.836-8.449-13.767-16.729-13.767H17.786c-1.547 0-3.038.224-4.462.613v-3.092zm39.329 31.077H17.786c-6.368 0-11.547-5.181-11.547-11.546 0-6.368 5.18-11.547 11.547-11.547h34.867c5.813 0 10.624 4.322 11.42 9.919.073.532.127 1.073.127 1.628 0 .483-.038.976-.104 1.47-.009.061-.02.123-.028.187-.074.479-.169.964-.304 1.444v.004c-1.362 4.86-5.821 8.441-11.111 8.441z"/><path d="M20.877 27.734h12.038a2.752 2.752 0 0 0 2.752-2.753V12.966a2.752 2.752 0 0 0-2.752-2.753H20.877a2.753 2.753 0 0 0-2.753 2.753v12.015a2.754 2.754 0 0 0 2.753 2.753zm2.753-12.015h6.533v6.509H23.63v-6.509zm68.389 24.007c.01.062.014.124.027.188.117.629.509 1.05.972 1.353 1.25.819 2.564 1.423 3.953 1.74.593.136.902.518 1.021 1.247.32 1.928.668 3.346 1.006 5.272.123.701.457 1.038 1.04 1.044.402.007.803.011 1.204-.001l13.789.004c1.322 0 1.37-.005 2.692.003.292 0 .54-.11.746-.35.9-1.042 1.798-2.083 2.688-3.136.976-1.152 1.953-1.806 2.913-2.98.447-.546.939-.799 1.583-.792 3.045.031 6.09.02 9.134.005a9.708 9.708 0 0 0 1.604-.17c1.558-.272 3.027-.895 4.433-1.763.579-.357 1.05-.848 1.195-1.66l-50-.004zm18.35 8.017c-.674-.016-1.349-.003-2.023-.004-.756 0-1.513.003-2.27-.002-.418-.002-.446-.106-.502-.617-.072-.645.21-1.02.558-1.364a.49.49 0 0 1 .33-.114c1.275-.009 2.55-.009 3.826-.004.323 0 .85.581.864.984.04 1.054.025 1.14-.783 1.12zm30.486-13.245c-2.212-1.021-4.508-1.471-6.857-1.47-11.798.009-23.307.037-35.111.067-.553.002-1.109.083-1.659.166-1.345.202-2.651.614-3.927 1.17-.71.31-1.103 2.218-1.263 2.908h49.95c-.141-.664-.644-2.615-1.132-2.84z"/></g></svg>