<svg width="86" height="68" viewBox="0 0 86 68" xmlns="http://www.w3.org/2000/svg"><title>noun_16573_cc</title><g fill="none" fill-rule="evenodd"><g transform="translate(0 9)"><circle fill="#2394EA" cx="43.001" cy="29.321" r="13.3"/><path d="M80.604.445H5.397a5 5 0 0 0-5 5v47.752a5 5 0 0 0 5 5h75.206a5 5 0 0 0 5-5V5.445a4.999 4.999 0 0 0-4.999-5zm-37.603 46.16c-9.544 0-17.284-7.74-17.284-17.285 0-9.544 7.739-17.283 17.284-17.283 9.545 0 17.283 7.738 17.283 17.283 0 9.545-7.738 17.285-17.283 17.285z" fill="#2394EB"/></g><path d="M59.804 9.282c0 2.761-3.404 5-7.598 5H33.794c-4.194 0-7.596-2.239-7.596-5V5.484c0-2.762 3.401-5 7.596-5h18.412c4.193 0 7.598 2.238 7.598 5v3.798z" fill="#2394EA"/><path d="M52.583 43.399l-7.044-5.034 6.812-4.865c.278-.203.417-.44.417-.71 0-.27-.139-.54-.417-.709l-7.785-5.574a1.831 1.831 0 0 0-1.53-.203c-.51.169-.834.54-.834.946V36l-5.653-4.054c-.556-.405-1.437-.372-1.947 0-.556.405-.51 1.047 0 1.419l6.952 4.966-6.998 5.034c-.556.405-.556 1.047 0 1.419.556.405 1.437.405 1.946 0l5.654-4.054v9.121c0 .406.324.777.834.946.186.068.371.068.556.068.371 0 .695-.101.974-.304l8.017-5.743c.278-.203.417-.44.417-.71 0-.27-.093-.507-.371-.71zm-7.6-13.75l4.402 3.175-4.402 3.142V29.65zm0 17.837v-6.689l4.68 3.311-4.68 3.378z" fill="#FFF"/></g></svg>