<svg xmlns="http://www.w3.org/2000/svg" width="110.332" height="91.994" viewBox="157.33 40.44 110.332 91.994"><path fill="#FFF" d="M212.404 40.364c-22.423 0-41.125 15.799-45.481 36.779-.245.728.246 1.648 1.028 1.793.783.146 1.616-.483 1.664-1.259 4.064-19.722 21.64-34.55 42.789-34.55 20.562 0 37.795 14.101 42.444 33.048l-12.924-6.879c-.636-.339-1.517-.099-1.859.532-.392.63-.098 1.55.54 1.89l15.666 8.384c.636.339 1.469.099 1.859-.534l9.35-15.021c.588-.871-.342-2.276-1.419-2.083a1.476 1.476 0 0 0-.93.679l-7.638 12.21c-4.993-20.062-23.304-34.989-45.089-34.989zm-44.697 52.191c-.051 0-.099.048-.147.048-.342.097-.684.339-.831.629l-9.398 15.021c-.393.629-.146 1.502.489 1.891.587.389 1.517.193 1.909-.436l7.588-12.26c4.993 20.061 23.255 34.985 45.09 34.985 22.423 0 41.174-15.797 45.481-36.73.146-.728-.343-1.501-1.077-1.648-.684-.146-1.47.389-1.617 1.066-4.065 19.724-21.689 34.6-42.79 34.6-20.611 0-37.844-14.148-42.445-33.096l12.924 6.931c.685.339 1.565.046 1.909-.583.343-.629.049-1.55-.587-1.84l-15.666-8.384c-.245-.145-.539-.194-.832-.194z"/></svg>