<svg width="85" height="80" viewBox="0 0 85 80" xmlns="http://www.w3.org/2000/svg"><title>noun_202264_cc</title><g fill="none" fill-rule="evenodd"><path d="M0 40c0 22.1 18.894 40 42.222 40 23.328 0 42.222-17.9 42.222-40S65.55 0 42.222 0C18.894 0 0 17.9 0 40z" fill="#008BCA"/><path d="M51.88 41.4l-3.08 2.906-9.745 9.194c-.422.4-.95.6-1.478.6-.527 0-1.055-.2-1.372-.5L20.69 40.2c-.845-.7-.95-2-.106-2.8.739-.8 2.111-.9 2.956-.1l14.038 12.2 1.215-1.15L61.75 26.6a2.12 2.12 0 0 1 2.955 0c.845.6.845 1.9 0 2.7L51.88 41.4z" fill="#1E1E1E"/></g></svg>