<svg width="86" height="61" viewBox="0 0 86 61" xmlns="http://www.w3.org/2000/svg"><title>Shape</title><path d="M85.66 30.867c0-1.815-.516-3.629-1.03-5.427-2.568-7.426-8.455-13.043-16.408-16.672-6.165-2.795-13.604-4.206-21.049-3.803-2.581-2.806-6.68-4.62-11.3-4.62-7.174 0-13.088 4.62-13.088 10.238 0 5.627 5.914 10.248 13.088 10.248 7.188 0 13.102-4.62 13.102-10.248 13.089-.61 25.405 6.02 28.751 16.464 4.092 11.644-4.634 23.695-19.768 26.904-15.134 3.013-30.302-3.824-34.4-15.664-1.017-3.002-1.281-6.02-.766-9.033l10.02 8.445 5.385-4.021-15.92-13.054-2.06-2.016-2.818 1.814L.727 32.463l4.87 4.228 9.763-6.838c-.515 3.22-.278 6.63 1.016 9.85 4.871 14.858 24.375 23.685 43.12 19.675 16.408-3.422 27.193-15.664 26.163-28.511zm-43.88-20.29c0 2.403-2.567 4.62-5.914 4.62-3.32 0-5.887-2.217-5.887-4.62 0-2.61 2.568-4.61 5.887-4.61 3.347 0 5.915 2 5.915 4.61z" fill="#008BCA" fill-rule="evenodd"/></svg>