<svg width="1018" height="358" viewBox="0 0 1018 358" xmlns="http://www.w3.org/2000/svg"><title>Shape</title><path d="M.297 136.73c.205 1.27.287 2.519.553 3.82 2.386 12.8 10.353 21.37 19.773 27.546 25.436 16.65 52.173 28.938 80.445 35.4 12.063 2.755 18.34 10.537 20.777 25.375 6.492 39.229 13.578 68.086 20.46 107.274 2.509 14.264 9.298 21.115 21.166 21.248 8.172.133 16.333.225 24.494-.031l280.586.082c26.9 0 27.884-.102 54.774.06 5.939.02 10.977-2.252 15.186-7.136 18.299-21.187 36.577-42.363 54.692-63.785 19.866-23.45 39.741-36.751 59.279-60.641 9.103-11.121 19.098-16.261 32.205-16.118 61.972.635 123.924.42 185.876.092 10.875-.061 21.821-1.556 32.635-3.441 31.693-5.54 61.583-18.217 90.194-35.881 11.786-7.26 21.361-17.265 24.32-33.802L.296 136.73l.001-.001zm373.392 163.123c-13.722-.317-27.443-.061-41.165-.072-15.391 0-30.781.05-46.172-.041-8.53-.041-9.093-2.15-10.24-12.554-1.464-13.128 4.291-20.746 11.356-27.761 1.69-1.66 4.454-2.314 6.717-2.324 25.938-.164 51.907-.164 77.865-.072 6.554 0 17.285 11.827 17.582 20.019.799 21.453.492 23.183-15.944 22.804h.001zM994.038 30.357C949.023 9.57 902.298.415 854.498.446c-240.077.174-474.255.737-714.455 1.362-11.254.03-22.559 1.679-33.751 3.369C78.931 9.293 52.348 17.68 26.389 28.995 11.951 35.282 3.933 74.123.687 88.15h1016.402c-2.877-13.507-13.107-53.207-23.05-57.795h-.001z" fill="#AD8484" fill-rule="evenodd"/></svg>