<svg width="90" height="52" viewBox="0 0 90 52" xmlns="http://www.w3.org/2000/svg"><title>noun_183034_cc</title><path d="M40.283 24.337h-2.449v-2.452a1.298 1.298 0 1 0-2.596 0v2.452h-2.449a1.298 1.298 0 0 0 0 2.596h2.449v2.447a1.298 1.298 0 0 0 2.596 0v-2.447h2.449a1.298 1.298 0 1 0 0-2.596zM90 6.077h-4.936l-4.486 10.429s-23.676 1.855-25.535 1.855c-1.857 0-8.67-5.136-17.283-5.136h-6.833V6.5a2.898 2.898 0 0 0 1.655-1.654h23.595a1.055 1.055 0 0 0 0-2.11H32.581a2.912 2.912 0 0 0-2.71-1.868 2.912 2.912 0 0 0-2.71 1.868H3.566a1.056 1.056 0 0 0 0 2.11h23.595A2.898 2.898 0 0 0 28.816 6.5v6.725c0 .01.005.019.006.029C14.158 13.562 0 31.088 0 40.991c0 1.944.418 2.723 2.649 2.723h3.962v2.694H0c0 .947 1.678 1.921 3.985 1.921h27.637c2.846 0 4.153.646 4.153 2.803h2.381c0-4.724-3.845-4.724-8.431-4.724h-.378v-2.694h2.497c7.245 0 12.04-3.523 14.193-8.32 2.154-4.798 4.307-8.908 10.084-9.985l24.895-3.523 3.246 5.018h4.725s-3.572-4.879-3.281-9.494C85.997 12.795 90 6.077 90 6.077zM5.463 34.249c0-3.283 12.203-16.102 16.51-16.102v16.102H5.463zm21.774 12.159H8.721v-2.694h18.516v2.694zm1.055-42.617a1.58 1.58 0 1 1 3.158 0 1.58 1.58 0 0 1-3.158 0zM36.536 32.3a6.663 6.663 0 0 1-6.665-6.665 6.665 6.665 0 1 1 13.33 0 6.664 6.664 0 0 1-6.665 6.665z" fill="#FFF" fill-rule="evenodd"/></svg>