<svg width="72" height="85" viewBox="0 0 72 85" xmlns="http://www.w3.org/2000/svg"><title>noun_121678_cc</title><g fill="#008BCA" fill-rule="evenodd"><path d="M66.365 7.639h2.656a2.931 2.931 0 0 0 2.931-2.932V3.244a2.93 2.93 0 0 0-2.93-2.93H3.423a2.93 2.93 0 0 0-2.93 2.93v1.465a2.93 2.93 0 0 0 2.93 2.93h4.018c.752 6.275 4.102 27.137 15.964 34.377C10.829 49.692 7.821 72.682 7.333 77.36H3.424a2.931 2.931 0 0 0-2.93 2.933v1.464a2.93 2.93 0 0 0 2.93 2.93h65.598a2.931 2.931 0 0 0 2.932-2.93v-1.465a2.931 2.931 0 0 0-2.932-2.933h-2.546c-.49-4.677-3.496-27.666-16.072-35.343 11.86-7.24 15.213-28.101 15.961-34.376zM41.46 39.145l.01 2.871-.01 2.87c6.778.02 12.14 5.479 15.932 16.224 2.37 6.71 3.353 13.528 3.675 16.25H12.743c.323-2.722 1.306-9.54 3.675-16.25 3.794-10.745 9.153-16.205 15.931-16.224l-.008-2.87.008-2.871c-6.777-.019-12.137-5.476-15.931-16.224-2.125-6.02-3.136-12.125-3.554-15.282h48.083c-.421 3.157-1.429 9.26-3.556 15.282-3.793 10.748-9.154 16.204-15.932 16.224z"/><path d="M16.773 73.396s7.817-12.794 20.023-12.794 18.797 12.794 18.797 12.794h-38.82zm4.366-46.551H52.67s-2.937 9.93-16.203 9.93c-11.127-.001-15.328-9.93-15.328-9.93z"/></g></svg>