<svg width="86" height="86" viewBox="0 0 86 86" xmlns="http://www.w3.org/2000/svg"><title>noun_137040_cc</title><path d="M31.419 14.324c-.913-2.059-3.68-3.118-6.184-2.369-2.501.752-3.79 3.034-2.877 5.093 1.983 4.468 4.998 8.595 8.723 11.928.952.85 2.25 1.281 3.549 1.281 1.167 0 2.337-.347 3.262-1.048 1.961-1.485 2.087-3.997.283-5.612a27.569 27.569 0 0 1-6.756-9.273zm49.384 63.294c-1.53-15.4-11.783-28.342-23.429-34.554 11.646-6.213 21.9-19.152 23.432-34.555 2.575-.082 4.635-1.816 4.635-3.955 0-2.194-2.16-3.97-4.821-3.97H5.38C2.715.584.559 2.36.559 4.554c0 2.142 2.06 3.873 4.635 3.955C6.724 23.912 16.98 36.85 28.622 43.064 16.977 49.276 6.724 62.215 5.19 77.62c-2.574.082-4.635 1.816-4.635 3.955 0 2.191 2.157 3.97 4.822 3.97h75.24c2.661 0 4.821-1.779 4.821-3.97 0-2.142-2.06-3.876-4.635-3.958zM14.856 8.525h56.288c-2.089 17.693-17.736 30.56-28.134 30.568h-.016c-10.405-.008-26.046-12.878-28.138-30.568zm-.004 69.077c2.09-17.687 17.727-30.555 28.129-30.57l.019.002c.006 0 .013-.003.016-.003 10.401.016 26.036 12.884 28.125 30.571H14.852zm27.746-7.22c0 2.19 2.16 3.97 4.822 3.97h11.69c2.661 0 4.821-1.78 4.821-3.97 0-2.193-2.16-3.971-4.821-3.971H47.42c-2.662 0-4.822 1.778-4.822 3.97z" fill="#FFF" fill-rule="evenodd"/></svg>