<svg xmlns="http://www.w3.org/2000/svg" width="60" height="25" viewBox="0 8.166 80 34.8"><path fill="#FFF" d="M.066 23.591c.372-1.422.608-2.896 1.138-4.258C4.907 9.84 15.738 5.59 25.179 9.876c3.676 1.669 6.712 4.2 9.478 7.062 1.629 1.685 3.158 3.464 4.73 5.202.206.228.403.464.667.771.24-.276.453-.517.661-.761 2.853-3.328 5.765-6.597 9.275-9.274 2.87-2.191 6.015-3.775 9.62-4.438C68.814 6.74 78.208 13.2 79.789 22.361c1.636 9.472-4.152 18.139-13.57 20.196-4.812 1.05-9.296.026-13.47-2.479-3.538-2.124-6.442-4.968-9.188-7.984-1.172-1.29-2.307-2.614-3.514-3.987-.279.323-.536.614-.79.911-2.842 3.307-5.739 6.56-9.225 9.232-2.828 2.169-5.911 3.788-9.476 4.433C11.5 44.321 2.475 38.41.467 29.491c-.144-.642-.268-1.289-.401-1.932v-3.968zm37.869 1.869c-1.808-1.995-3.523-3.959-5.316-5.851-2.136-2.253-4.466-4.29-7.183-5.851-3.282-1.888-6.786-2.736-10.55-1.994-7.673 1.512-12.52 8.445-11.346 16.14.96 6.303 6.71 11.41 13.115 11.709 3.46.162 6.574-.806 9.447-2.639 4.708-3.008 8.166-7.277 11.833-11.514zm4.259.071c1.679 1.882 3.279 3.74 4.95 5.531 2.268 2.434 4.703 4.683 7.613 6.361 3.242 1.87 6.709 2.686 10.424 1.964 7.675-1.486 12.539-8.396 11.394-16.103-.936-6.306-6.667-11.425-13.074-11.75-3.784-.191-7.117.995-10.186 3.069-4.35 2.939-7.671 6.911-11.121 10.928z"/></svg>