<svg width="85" height="60" viewBox="0 0 85 60" xmlns="http://www.w3.org/2000/svg"><title>noun_171193_cc</title><g fill="#FFF" fill-rule="evenodd"><path d="M26.69 15.523H2.369a2.005 2.005 0 1 0 0 4.008h22.365a26.591 26.591 0 0 1 1.958-4.008zm28.465 44.183c-16.259 0-29.486-13.227-29.486-29.485C25.67 13.965 38.896.74 55.155.74c16.255 0 29.482 13.226 29.482 29.482 0 16.258-13.227 29.485-29.482 29.485zm0-53.455c-13.22 0-23.973 10.754-23.973 23.97 0 13.218 10.753 23.973 23.973 23.973 13.215 0 23.969-10.755 23.969-23.973 0-13.216-10.753-23.97-23.97-23.97z"/><path d="M57.84 26.653V15.921a2.004 2.004 0 1 0-4.008 0v10.731a3.468 3.468 0 0 0-1.41 3.488l-9.524 9.853a2.005 2.005 0 0 0 2.883 2.788l9.525-9.858c.175.026.35.045.53.045a3.478 3.478 0 0 0 3.48-3.478 3.463 3.463 0 0 0-1.476-2.837zM22.914 29.22c0-1.077.072-2.137.195-3.18H9.884a2.005 2.005 0 0 0 0 4.008h13.052c-.01-.275-.022-.551-.022-.828zm1.029 7.339H17.4a2.003 2.003 0 1 0 0 4.009h8.04a26.592 26.592 0 0 1-1.498-4.01z"/></g></svg>