<svg width="25" height="48" viewBox="0 0 25 48" xmlns="http://www.w3.org/2000/svg"><title>noun_763694_cc</title><path d="M24.657 39.613L8.95 23.916 24.646 8.219c.21-.21.32-.487.32-.785V1.173c0-.454-.265-.852-.685-1.018a1.093 1.093 0 0 0-1.206.243L.354 23.142c-.21.21-.32.486-.32.785 0 .299.11.575.32.785l22.743 22.744c.31.298.786.398 1.195.221.42-.177.686-.575.686-1.018V40.4c0-.3-.11-.576-.32-.786zm-.785 7.057L1.128 23.916 23.872 1.173v6.26L7.777 23.53a.548.548 0 0 0 0 .785L23.872 40.41v6.261z" fill="#FFF" fill-rule="evenodd"/></svg>