<svg width="60" height="56" viewBox="0 0 60 56" xmlns="http://www.w3.org/2000/svg"><title>noun_600909_cc</title><path d="M56 23.5a8.479 8.479 0 0 0-2.828-6.33 8.578 8.578 0 0 0-6.378-2.141l-.186.015a8.469 8.469 0 0 0-5.453 2.768 2 2 0 1 1-2.969-2.673 12.392 12.392 0 0 1 5.753-3.63 10.01 10.01 0 0 0-12.077-5.007 12.434 12.434 0 0 1 2 5.175 2 2 0 0 1-3.974.474 8.452 8.452 0 0 0-1.699-3.904 8.593 8.593 0 0 0-.63-.719l-.268-.25A8.462 8.462 0 0 0 21.5 5c-4.575 0-8.326 3.622-8.494 8.18l-.015.4a8.463 8.463 0 0 0 1.802 5.134c.212.324.34.711.34 1.128a2 2 0 0 1-3.671 1.1 12.437 12.437 0 0 1-2.28-5.271A8.51 8.51 0 0 0 4 23.5a8.5 8.5 0 0 0 4.598 7.554c.057.025.112.053.166.083.71.42 1.114 1.197.998 2.021a2 2 0 0 1-2.903 1.497A12.492 12.492 0 0 1 0 23.5a12.507 12.507 0 0 1 9.157-12.048c.49-2.99 2.063-5.81 4.638-7.822C18.31.103 24.488.168 28.89 3.401A13.953 13.953 0 0 1 35 2a14.008 14.008 0 0 1 13.086 9.015c-.188-.01-.376-.014-.564-.015C54.415 11.012 60 16.604 60 23.5c0 5.255-3.242 9.752-7.835 11.6a2 2 0 0 1-1.376-3.734C53.847 30.061 56 27.032 56 23.501zM21.004 41.63c-2.211 0-2.66-1.198-1.014-2.668l13.042-11.637c3.296-2.94 3.935-2.368 1.435 1.269l-3.553 5.169c-1.251 1.82-.466 3.295 1.73 3.295h2.343c2.207 0 2.745 1.29 1.216 2.869L23.292 53.249c-3.078 3.176-3.754 2.666-1.51-1.139l4.144-7.027c1.124-1.907.25-3.453-1.968-3.453h-2.954z" fill="#FFF" fill-rule="evenodd"/></svg>