<svg width="80" height="80" viewBox="0 0 80 80" xmlns="http://www.w3.org/2000/svg"><title>noun_340719_cc</title><g fill="#B2B2B2" fill-rule="evenodd"><circle cx="52.75" cy="34.25" r="7.375"/><path d="M.272 3.215L3.216.27l76.513 76.513-2.944 2.944zM18 7.5h44c5.79 0 10.5 4.71 10.5 10.5v27.278l-13.143 9.015 14.369 14.369A13.387 13.387 0 0 0 75.5 62V18c0-7.444-6.056-13.5-13.5-13.5H18c-2.423 0-4.694.65-6.662 1.773l2.224 2.224A10.424 10.424 0 0 1 18 7.5zm32.926 52.575L30 40 7.5 58.047V18c0-1.587.364-3.088.998-4.438l-2.224-2.224A13.39 13.39 0 0 0 4.5 18v44c0 7.444 6.056 13.5 13.5 13.5h44c2.424 0 4.694-.65 6.662-1.773L53.349 58.413l-2.423 1.662z"/></g></svg>