<svg width="95" height="80" viewBox="0 0 95 80" xmlns="http://www.w3.org/2000/svg"><title>photos-blue</title><g fill="#FFF" fill-rule="evenodd"><path d="M78.397 21.54L74.751.233.118 13.336l10.938 62.328 7.407-1.254v5.356h75.772V21.54H78.397zM18.463 68.144l-2.392.456-8.888-50.25L69.738 7.296l2.508 14.244H18.463v46.603zm69.62 5.47H24.616v-45.92h63.467v45.92z"/><path d="M28.717 31.795v34.069l12.876-8.545 7.976 5.012 19.37-21.307 2.508 1.025L83.98 56.52V31.795H28.717zm12.306 14.698c-2.962 0-5.47-2.506-5.47-5.469 0-2.963 2.508-5.47 5.47-5.47 2.963 0 5.47 2.506 5.47 5.47 0 2.963-2.507 5.47-5.47 5.47z"/></g></svg>