<svg xmlns="http://www.w3.org/2000/svg" width="80" height="61.44" viewBox="173.091 55.68 80 61.44"><g fill="#FFF"><path d="M239.732 55.68h-61.28a5.36 5.36 0 0 0-5.36 5.36v42.48c0 4.48 3.92 5.359 5.36 5.359l61.28.081c3.52 0 5.358-2.64 5.358-5.44V61.04a5.36 5.36 0 0 0-5.358-5.36zm.079 48.08h-61.359V61.04h61.359v42.72z"/><path d="M181.092 100.8v.08l.059-.08zm55.839-10.24l-13.12-18.88-10.56 13.76-5.2-5.52-13.439 15.76-5.521-5.04-7.94 10.16h55.78zm-42.88-13.68c2.8-.479 5.04-2.72 5.52-5.52.8-4.56-3.12-8.479-7.76-7.76-2.8.4-5.04 2.64-5.521 5.52-.799 4.56 3.121 8.48 7.761 7.76z"/><path d="M247.812 104.4l-.081-40.64c1.44 0 5.36 3.84 5.36 5.36v42.48c0 3.039-2.48 5.52-5.521 5.52h-61.12c-1.439 0-5.359-3.841-5.359-5.36h62.399c5.521-.08 4.322-7.36 4.322-7.36z"/></g></svg>