<svg width="83" height="84" viewBox="0 0 83 84" xmlns="http://www.w3.org/2000/svg"><title>Group</title><g fill="#008BCA" fill-rule="evenodd"><path d="M12.149 55.987c-.037 0-.073 0-.11-.002-.635-.048-1.22-.484-1.572-1.177L.872 35.975c-.623-1.22-.372-2.869.557-3.684.926-.818 2.183-.494 2.807.73l8.095 15.887 9.356-14.646c.718-1.119 1.993-1.273 2.851-.33.857.943.97 2.62.251 3.743L13.701 55.034c-.387.608-.955.953-1.552.953zm68.299.853c-.653 0-1.295-.415-1.684-1.18l-8.09-15.887-9.36 14.65c-.717 1.126-1.99 1.272-2.852.329-.857-.943-.97-2.619-.251-3.743l11.094-17.36c.411-.641 1-.981 1.662-.944.633.045 1.218.48 1.57 1.174l9.589 18.833c.623 1.22.372 2.869-.557 3.684-.344.3-.734.444-1.12.444z"/><path d="M41.43 83.23c-8.155 0-16.04-4.184-22.016-11.943-.795-1.033-.803-2.715-.016-3.756.785-1.046 2.068-1.052 2.862-.021 6.74 8.75 16.265 12.282 25.473 9.446 14.044-4.317 23.748-23.104 21.192-41.026-.209-1.443.518-2.83 1.615-3.1 1.115-.276 2.155.68 2.361 2.12 2.945 20.63-8.158 42.234-24.243 47.18-2.404.736-4.83 1.1-7.229 1.1zM12.155 55.748c-.893 0-1.712-.783-1.953-1.97-2.198-10.798-.957-22.114 3.493-31.857C18.289 11.86 25.813 4.589 34.342 1.964c11.278-3.477 23.033 1.464 30.697 12.87.739 1.1.66 2.778-.18 3.748-.832.97-2.115.868-2.856-.237C55.327 8.414 45.084 4.12 35.267 7.136c-7.468 2.295-14.066 8.68-18.1 17.515-3.88 8.498-4.966 18.358-3.055 27.756.29 1.415-.352 2.874-1.433 3.25-.174.065-.35.091-.524.091z"/></g></svg>