<svg width="25" height="48" viewBox="0 0 25 48" xmlns="http://www.w3.org/2000/svg"><title>noun_763694_cc</title><path d="M.343 39.613L16.05 23.916.354 8.219c-.21-.21-.32-.487-.32-.785V1.173A1.078 1.078 0 0 1 .718.155c.41-.177.885-.078 1.206.243l22.721 22.744c.21.21.32.486.32.785 0 .299-.11.575-.32.785L1.903 47.456c-.31.298-.786.398-1.195.221a1.103 1.103 0 0 1-.686-1.018V40.4c0-.3.11-.576.32-.786zm.785 7.057l22.744-22.754L1.128 1.173v6.26L17.223 23.53a.548.548 0 0 1 0 .785L1.128 40.41v6.261z" fill="#FFF" fill-rule="evenodd"/></svg>