<svg xmlns="http://www.w3.org/2000/svg" width="70" height="30" viewBox="-3.425 -4.375 70 35"><path class="timer" fill="#FFF" d="M14.401 13.127c0 9.122 7.425 16.549 16.552 16.549 9.125 0 16.551-7.427 16.551-16.549 0-9.127-7.426-16.553-16.551-16.553-9.127 0-16.552 7.426-16.552 16.553zm2.537 0c0-7.729 6.288-14.016 14.015-14.016s14.014 6.287 14.014 14.016c0 7.725-6.287 14.011-14.014 14.011-7.727 0-14.015-6.286-14.015-14.011z"/><path class="timer" fill="#FFF" d="M38.359 12.019h-5.795v-9.58c0-.8-.647-1.448-1.445-1.448h-.349c-.8 0-1.447.648-1.447 1.448v10.978c0 .017-.005.031-.005.048v.35c0 .8.647 1.446 1.445 1.446h7.596c.8 0 1.446-.647 1.446-1.446v-.35a1.444 1.444 0 0 0-1.446-1.446z"/></svg>